<svg preserveAspectRatio="none" overflow="visible" style="display: block;" width="116.721" height="173.886" viewBox="0 0 116.721 173.886" fill="none" xmlns="http://www.w3.org/2000/svg">
<path id="Vector 186" d="M2.0003 13.4474C13.9707 6.249 27.7018 -4.74 39.9447 7.50298C45.7623 13.3206 45.187 26.6673 41.0003 32.9474C37.5275 38.1567 35.0849 45.8582 27.5559 46.003C21.6421 46.1167 16.3162 42.5407 15.2225 36.4474C12.1167 19.1436 34.9724 21.4716 42.9447 28.4474C53.8265 37.969 50.3916 76.7921 34.1114 80.2808C20.1528 83.2719 21.4595 67.0691 32.2225 63.2252C47.363 57.8179 55.8488 62.2684 59.7781 79.6696C62.8461 93.2566 51.3544 107.476 40.0003 111.892C37.6422 112.809 25.603 121.807 25.0559 119.892C19.6574 100.997 51.3911 96.0726 62.0003 105.503C74.19 116.338 86.4001 127.441 89.2225 143.67C90.7403 152.397 87.6536 178.703 90.2225 170.225C93.4374 159.616 98.7493 145.577 108 138.503C110.753 136.398 119.381 129.464 111.445 136.447C103.271 143.64 95.9044 149.785 89.5559 157.947C88.143 159.764 89.0911 164.045 89.0003 166.225C88.9234 168.071 84.2041 162.917 83.5559 162.447C77.9585 158.391 71.1923 157.542 64.4447 157.447C58.4222 157.363 50.4538 159.128 48.0003 155.447" stroke="#00ADB5" stroke-opacity="0.2" stroke-width="4" stroke-linecap="round" stroke-linejoin="round"/>
</svg>
